<?xml version="1.0" encoding="utf-8"?>
<!-- Generator: Adobe Illustrator 27.0.1, SVG Export Plug-In . SVG Version: 6.00 Build 0)  -->
<svg version="1.1" id="visual" xmlns="http://www.w3.org/2000/svg" xmlns:xlink="http://www.w3.org/1999/xlink" x="0px" y="0px"
	 viewBox="0 0 900 900" style="enable-background:new 0 0 900 900;" xml:space="preserve">
<style type="text/css">
	.st0{fill:#246688;stroke:#246688;stroke-linejoin:bevel;}
	.st1{fill:#0C2435;stroke:#0C2435;stroke-linejoin:bevel;}
	.st2{fill:#19435D;stroke:#19435D;stroke-linejoin:bevel;}
	.st3{fill:#1D4E6B;stroke:#1D4E6B;stroke-linejoin:bevel;}
	.st4{fill:#112E42;stroke:#112E42;stroke-linejoin:bevel;}
	.st5{fill:#205A7A;stroke:#205A7A;stroke-linejoin:bevel;}
	.st6{fill:#00101C;stroke:#00101C;stroke-linejoin:bevel;}
	.st7{fill:#15384F;stroke:#15384F;stroke-linejoin:bevel;}
	.st8{fill:#297EA6;stroke:#297EA6;stroke-linejoin:bevel;}
	.st9{fill:#081A28;stroke:#081A28;stroke-linejoin:bevel;}
	.st10{fill:#277297;stroke:#277297;stroke-linejoin:bevel;}
	.st11{fill:none;stroke:#B4FFFD;stroke-width:26;stroke-miterlimit:10;}
</style>
<g>
	<path class="st0" d="M413,465l-90,42l40,75L413,465z"/>
	<path class="st1" d="M363,582l98,40l-48-157L363,582z"/>
	<path class="st2" d="M323,507l-29,113l69-38L323,507z"/>
	<path class="st3" d="M363,582l4,84l94-44L363,582z"/>
	<path class="st2" d="M294,620l73,46l-4-84L294,620z"/>
	<path class="st4" d="M294,397l-55,124l84-14L294,397z"/>
	<path class="st5" d="M323,507l-84,14l55,99L323,507z"/>
	<path class="st4" d="M461,622l71-93l-119-64L461,622z"/>
	<path class="st5" d="M408,363l-114,34l119,68L408,363z"/>
	<path class="st1" d="M413,465l-119-68l29,110L413,465z"/>
	<path class="st0" d="M367,666l97-4l-3-40L367,666z"/>
	<path class="st1" d="M461,622l128-7l-57-86L461,622z"/>
	<path class="st6" d="M463,372l-55-9l5,102L463,372z"/>
	<path class="st3" d="M574,425l-111-53l-50,93L574,425z"/>
	<path class="st5" d="M239,521l-19,48l74,51L239,521z"/>
	<path class="st0" d="M589,615l-15-98l-42,12L589,615z"/>
	<path class="st0" d="M532,529l42-104l-161,40L532,529z"/>
	<path class="st7" d="M291,336l-55,60l58,1L291,336z"/>
	<path class="st0" d="M294,397l-58-1l3,125L294,397z"/>
	<path class="st8" d="M239,521l-129,9l110,39L239,521z"/>
	<path class="st3" d="M408,363l-117-27l3,61L408,363z"/>
	<path class="st0" d="M368,288l-77,48l117,27L368,288z"/>
	<path class="st6" d="M574,517v-92l-42,104L574,517z"/>
	<path class="st6" d="M202,692l116,43l-24-115L202,692z"/>
	<path class="st4" d="M294,620l24,115l49-69L294,620z"/>
	<path class="st4" d="M367,666l69,109l28-113L367,666z"/>
	<path class="st6" d="M615,737l-26-122l-125,47L615,737z"/>
	<path class="st7" d="M464,662l125-47l-128,7L464,662z"/>
	<path class="st7" d="M721,400l-127-75l-20,100L721,400z"/>
	<path class="st4" d="M478,265l-70,98l55,9L478,265z"/>
	<path class="st3" d="M478,265l-110,23l40,75L478,265z"/>
	<path class="st0" d="M220,569l-18,123l92-72L220,569z"/>
	<path class="st8" d="M116,663l86,29l18-123L116,663z"/>
	<path class="st6" d="M318,735l118,40l-69-109L318,735z"/>
	<path class="st4" d="M594,325l-116-60l-15,107L594,325z"/>
	<path class="st0" d="M80,422l30,108l126-134L80,422z"/>
	<path class="st7" d="M236,396L110,530l129-9L236,396z"/>
	<path class="st8" d="M260,205l-83,127l114,4L260,205z"/>
	<path class="st9" d="M291,336l-114-4l59,64L291,336z"/>
	<path class="st4" d="M574,425l20-100l-131,47L574,425z"/>
	<path class="st3" d="M701,515l-127-90v92L701,515z"/>
	<path class="st5" d="M110,530l-7,55l117-16L110,530z"/>
	<path class="st0" d="M478,265l-67-34l-43,57L478,265z"/>
	<path class="st9" d="M368,288l-108-83l31,131L368,288z"/>
	<path class="st0" d="M103,585l13,78l104-94L103,585z"/>
	<path class="st1" d="M202,692l11,103l105-60L202,692z"/>
	<path class="st3" d="M536,802l79-65l-151-75L536,802z"/>
	<path class="st8" d="M589,615l112-100l-127,2L589,615z"/>
	<path class="st0" d="M717,624l-16-109L589,615L717,624z"/>
	<path class="st8" d="M436,775l100,27l-72-140L436,775z"/>
	<path class="st5" d="M177,332l-97,90l156-26L177,332z"/>
	<path class="st6" d="M110,530L0,481l103,104L110,530z"/>
	<path class="st3" d="M124,804l89-9l-11-103L124,804z"/>
	<path class="st0" d="M318,735l-10,104l128-64L318,735z"/>
	<path class="st0" d="M436,775l95,125l5-98L436,775z"/>
	<path class="st4" d="M213,795l95,44l10-104L213,795z"/>
	<path class="st8" d="M536,802l78-38l1-27L536,802z"/>
	<path class="st2" d="M704,700l13-76l-128-9L704,700z"/>
	<path class="st9" d="M594,325l-95-119l-21,59L594,325z"/>
	<path class="st10" d="M478,265l21-59l-88,25L478,265z"/>
	<path class="st7" d="M411,231l-151-26l108,83L411,231z"/>
	<path class="st9" d="M177,332l-84,4l-13,86L177,332z"/>
	<path class="st4" d="M309,123l-49,82l151,26L309,123z"/>
	<path class="st8" d="M132,227L93,336l84-4L132,227z"/>
	<path class="st2" d="M704,700l-115-85l26,122L704,700z"/>
	<path class="st9" d="M801,425l-80-25l-20,115L801,425z"/>
	<path class="st3" d="M701,515l20-115l-147,25L701,515z"/>
	<path class="st2" d="M594,325l38-90l-133-29L594,325z"/>
	<path class="st5" d="M696,769l8-69l-89,37L696,769z"/>
	<path class="st5" d="M320,900h40l-52-61L320,900z"/>
	<path class="st9" d="M308,839l52,61l76-125L308,839z"/>
	<path class="st1" d="M715,900l-19-131l-82-5L715,900z"/>
	<path class="st10" d="M681,275l-49-40l-38,90L681,275z"/>
	<path class="st5" d="M163,900h157l-12-61L163,900z"/>
	<path class="st5" d="M260,205l-95,3l12,124L260,205z"/>
	<path class="st0" d="M116,663l8,141l78-112L116,663z"/>
	<path class="st2" d="M213,795l-50,105l145-61L213,795z"/>
	<path class="st10" d="M0,712l124,92l-8-141L0,712z"/>
	<path class="st8" d="M0,629l116,34l-13-78L0,629z"/>
	<path class="st0" d="M721,400l-40-125l-87,50L721,400z"/>
	<path class="st6" d="M0,403v78l80-59L0,403z"/>
	<path class="st4" d="M80,422L0,481l110,49L80,422z"/>
	<path class="st7" d="M0,403l80,19l13-86L0,403z"/>
	<path class="st2" d="M165,208l-33,19l45,105L165,208z"/>
	<path class="st5" d="M585,900l29-136l-78,38L585,900z"/>
	<path class="st0" d="M614,764l82,5l-81-32L614,764z"/>
	<path class="st10" d="M813,505l-112,10l129,45L813,505z"/>
	<path class="st10" d="M0,481v148l103-44L0,481z"/>
	<path class="st8" d="M0,326v77l93-67L0,326z"/>
	<path class="st5" d="M360,900h171l-95-125L360,900z"/>
	<path class="st7" d="M475,124l-64,107l88-25L475,124z"/>
	<path class="st5" d="M389,104l-80,19l102,108L389,104z"/>
	<path class="st5" d="M260,205L183,94l-18,114L260,205z"/>
	<path class="st0" d="M165,208l-34-93l1,112L165,208z"/>
	<path class="st2" d="M604,134l-129-10l24,82L604,134z"/>
	<path class="st1" d="M475,124l-86-20l22,127L475,124z"/>
	<path class="st5" d="M813,505l-12-80l-100,90L813,505z"/>
	<path class="st0" d="M839,275l-71-68l-87,68H839z"/>
	<path class="st7" d="M701,515l16,109l113-64L701,515z"/>
	<path class="st0" d="M531,900h54l-49-98L531,900z"/>
	<path class="st10" d="M830,560l-113,64l84,77L830,560z"/>
	<path class="st10" d="M0,629v83l116-49L0,629z"/>
	<path class="st9" d="M0,212v114l93,10L0,212z"/>
	<path class="st4" d="M681,275l10-66l-59,26L681,275z"/>
	<path class="st3" d="M632,235l-28-101l-105,72L632,235z"/>
	<path class="st1" d="M768,207l-77,2l-10,66L768,207z"/>
	<path class="st2" d="M67,900h96l-39-96L67,900z"/>
	<path class="st3" d="M124,804l39,96l50-105L124,804z"/>
	<path class="st7" d="M691,209l-87-75l28,101L691,209z"/>
	<path class="st8" d="M475,124L427,0l-38,104L475,124z"/>
	<path class="st7" d="M801,701l-84-77l-13,76L801,701z"/>
	<path class="st0" d="M813,505l87-81l-99,1L813,505z"/>
	<path class="st1" d="M811,762l-10-61l-97-1L811,762z"/>
	<path class="st1" d="M811,762l-107-62l-8,69L811,762z"/>
	<path class="st4" d="M0,712v53l124,39L0,712z"/>
	<path class="st0" d="M309,123L183,94l77,111L309,123z"/>
	<path class="st6" d="M132,227L0,212l93,124L132,227z"/>
	<path class="st6" d="M303,0L183,94l126,29L303,0z"/>
	<path class="st3" d="M183,94l-52,21l34,93L183,94z"/>
	<path class="st10" d="M787,900l24-138l-115,7L787,900z"/>
	<path class="st10" d="M900,626v-91l-70,25L900,626z"/>
	<path class="st4" d="M0,765l67,135l57-96L0,765z"/>
	<path class="st1" d="M131,115L0,212l132,15L131,115z"/>
	<path class="st8" d="M839,275H681l40,125L839,275z"/>
	<path class="st7" d="M691,209l15-75H604L691,209z"/>
	<path class="st6" d="M839,275L721,400l80,25L839,275z"/>
	<path class="st3" d="M585,900h130L614,764L585,900z"/>
	<path class="st8" d="M768,207l-62-73l-15,75L768,207z"/>
	<path class="st9" d="M519,0h-92l48,124L519,0z"/>
	<path class="st3" d="M900,626l-70-66l-29,141L900,626z"/>
	<path class="st3" d="M830,560l70-25l-87-30L830,560z"/>
	<path class="st9" d="M900,424l-61-149l-38,150L900,424z"/>
	<path class="st8" d="M768,207l6-147l-68,74L768,207z"/>
	<path class="st2" d="M519,0l-44,124l129,10L519,0z"/>
	<path class="st2" d="M389,104L303,0l6,123L389,104z"/>
	<path class="st8" d="M900,535V424l-87,81L900,535z"/>
	<path class="st5" d="M900,669v-43l-99,75L900,669z"/>
	<path class="st9" d="M427,0H303l86,104L427,0z"/>
	<path class="st8" d="M87,0L0,106l131,9L87,0z"/>
	<path class="st5" d="M900,773l-99-72l10,61L900,773z"/>
	<path class="st8" d="M900,773V669l-99,32L900,773z"/>
	<path class="st2" d="M582,0h-63l85,134L582,0z"/>
	<path class="st7" d="M0,765v135h67L0,765z"/>
	<path class="st2" d="M715,900h72l-91-131L715,900z"/>
	<path class="st8" d="M723,0L604,134h102L723,0z"/>
	<path class="st8" d="M723,0H582l22,134L723,0z"/>
	<path class="st1" d="M162,0l-31,115l52-21L162,0z"/>
	<path class="st2" d="M131,115L0,106v106L131,115z"/>
	<path class="st1" d="M303,0H162l21,94L303,0z"/>
	<path class="st9" d="M900,424V274l-61,1L900,424z"/>
	<path class="st6" d="M839,275l61-79l-132,11L839,275z"/>
	<path class="st7" d="M900,900V773l-89-11L900,900z"/>
	<path class="st7" d="M162,0H87l44,115L162,0z"/>
	<path class="st4" d="M900,98L774,60l-6,147L900,98z"/>
	<path class="st10" d="M900,274v-78l-61,79L900,274z"/>
	<path class="st7" d="M794,0h-71l51,60L794,0z"/>
	<path class="st0" d="M774,60L723,0l-17,134L774,60z"/>
	<path class="st9" d="M787,900h113l-89-138L787,900z"/>
	<path class="st10" d="M87,0H0v106L87,0z"/>
	<path class="st4" d="M900,98L794,0l-20,60L900,98z"/>
	<path class="st9" d="M900,196V98L768,207L900,196z"/>
	<path class="st0" d="M900,98V0H794L900,98z"/>
</g>
<g>
	
		<image style="overflow:visible;opacity:0.75;" width="372" height="372" xlink:href="F9900503.png"  transform="matrix(1 0 0 1 61 494.125)">
	</image>
	<g>
		<circle class="st11" cx="236" cy="662" r="157.8"/>
	</g>
</g>
<g>
	
		<image style="overflow:visible;opacity:0.75;" width="372" height="372" xlink:href="F9900501.png"  transform="matrix(1 0 0 1 526 476.125)">
	</image>
	<g>
		<circle class="st11" cx="701" cy="644" r="157.8"/>
	</g>
</g>
<g>
	
		<image style="overflow:visible;opacity:0.75;" width="372" height="372" xlink:href="F9900507.png"  transform="matrix(1 0 0 1 291.75 63.125)">
	</image>
	<g>
		<circle class="st11" cx="466.8" cy="231" r="157.8"/>
	</g>
</g>
<g>
	
		<image style="overflow:visible;opacity:0.75;" width="235" height="201" xlink:href="F9900500.png"  transform="matrix(1 0 0 1 648 258)">
	</image>
	<g>
		<path class="st11" d="M778.5,274.3c11.5-4.9,24.3-6.7,36.7-5.3c5,0.6,10.1,1.7,14.2,4.6c3.6,2.5,6.3,6.2,8.2,10.2
			c4.6,9.9,4,22-1.4,31.5c-5.4,9.5-15.6,16.1-26.5,17.1c7.9,8.8,14.4,19.2,16.8,30.8c2.4,11.6,0.2,24.4-7.5,33.4
			c-11.9,13.9-32.5,15.2-50.8,15.5c-13.5,0.2-27.4,0.4-40.1-4.1c-15.7-5.5-28.2-17.5-39.4-29.8c-10.7-11.9-20.8-24.6-27.4-39.2"/>
	</g>
</g>
</svg>
