<?xml version="1.0" encoding="utf-8"?>
<!-- Generator: Adobe Illustrator 27.0.1, SVG Export Plug-In . SVG Version: 6.00 Build 0)  -->
<svg version="1.1" id="visual" xmlns="http://www.w3.org/2000/svg" xmlns:xlink="http://www.w3.org/1999/xlink" x="0px" y="0px"
	 viewBox="0 0 900 900" style="enable-background:new 0 0 900 900;" xml:space="preserve">
<style type="text/css">
	.st0{fill:#00101C;stroke:#00101C;stroke-linejoin:bevel;}
	.st1{fill:#15384F;stroke:#15384F;stroke-linejoin:bevel;}
	.st2{fill:#277297;stroke:#277297;stroke-linejoin:bevel;}
	.st3{fill:#297EA6;stroke:#297EA6;stroke-linejoin:bevel;}
	.st4{fill:#1D4E6B;stroke:#1D4E6B;stroke-linejoin:bevel;}
	.st5{fill:#112E42;stroke:#112E42;stroke-linejoin:bevel;}
	.st6{fill:#081A28;stroke:#081A28;stroke-linejoin:bevel;}
	.st7{fill:#205A7A;stroke:#205A7A;stroke-linejoin:bevel;}
	.st8{fill:#246688;stroke:#246688;stroke-linejoin:bevel;}
	.st9{fill:#19435D;stroke:#19435D;stroke-linejoin:bevel;}
	.st10{fill:#0C2435;stroke:#0C2435;stroke-linejoin:bevel;}
	.st11{fill:none;stroke:#B4FFFD;stroke-width:26;stroke-miterlimit:10;}
</style>
<g>
	<path class="st0" d="M406,385l97,5l-83-88L406,385z"/>
	<path class="st1" d="M503,390l12-67l-95-21L503,390z"/>
	<path class="st2" d="M531,491l44-89l-72-12L531,491z"/>
	<path class="st3" d="M503,390l72,12l-60-79L503,390z"/>
	<path class="st3" d="M575,402l21-83l-81,4L575,402z"/>
	<path class="st4" d="M515,323l7-121L420,302L515,323z"/>
	<path class="st5" d="M327,472l46-4l33-83L327,472z"/>
	<path class="st6" d="M406,385l-33,83l130-78L406,385z"/>
	<path class="st7" d="M373,468l158,23l-28-101L373,468z"/>
	<path class="st8" d="M596,319l-74-117l-7,121L596,319z"/>
	<path class="st3" d="M372,206l-81,133l129-37L372,206z"/>
	<path class="st9" d="M420,302l-129,37l115,46L420,302z"/>
	<path class="st5" d="M522,202l-150,4l48,96L522,202z"/>
	<path class="st9" d="M291,339l36,133l79-87L291,339z"/>
	<path class="st10" d="M373,468l117,126l41-103L373,468z"/>
	<path class="st2" d="M379,108l-42,87l35,11L379,108z"/>
	<path class="st10" d="M372,206l-35-11l-46,144L372,206z"/>
	<path class="st9" d="M619,574l-26-73l-62-10L619,574z"/>
	<path class="st10" d="M531,491l62,10l-18-99L531,491z"/>
	<path class="st3" d="M575,402l103,6l-82-89L575,402z"/>
	<path class="st10" d="M236,422l26,3l29-86L236,422z"/>
	<path class="st7" d="M291,339l-29,86l65,47L291,339z"/>
	<path class="st7" d="M596,319l12-121l-86,4L596,319z"/>
	<path class="st9" d="M478,83l-99,25l-7,98L478,83z"/>
	<path class="st8" d="M706,268l-98-70l-12,121L706,268z"/>
	<path class="st3" d="M593,501l85-93l-103-6L593,501z"/>
	<path class="st8" d="M199,338l37,84l55-83L199,338z"/>
	<path class="st6" d="M186,536l122,56l19-120L186,536z"/>
	<path class="st1" d="M608,198l-48-66l-38,70L608,198z"/>
	<path class="st10" d="M381,617l-8-149l-65,124L381,617z"/>
	<path class="st8" d="M381,617l109-23L373,468L381,617z"/>
	<path class="st1" d="M478,83L372,206l150-4L478,83z"/>
	<path class="st1" d="M216,213l75,126l46-144L216,213z"/>
	<path class="st6" d="M216,213l-17,125l92,1L216,213z"/>
	<path class="st1" d="M619,574l50-69l-76-4L619,574z"/>
	<path class="st1" d="M593,501l76,4l9-97L593,501z"/>
	<path class="st5" d="M735,224l-29,44l75,47L735,224z"/>
	<path class="st9" d="M678,408l28-140l-110,51L678,408z"/>
	<path class="st5" d="M608,198l78-66H560L608,198z"/>
	<path class="st8" d="M560,132l-82-49l44,119L560,132z"/>
	<path class="st1" d="M490,594l129-20l-88-83L490,594z"/>
	<path class="st10" d="M308,592l65-124l-46,4L308,592z"/>
	<path class="st1" d="M637,720l78-90l-96-56L637,720z"/>
	<path class="st10" d="M337,80L216,213l121-18V80z"/>
	<path class="st8" d="M186,536l141-64l-65-47L186,536z"/>
	<path class="st6" d="M186,536l76-111l-26-3L186,536z"/>
	<path class="st8" d="M369,0l-32,80l42,28L369,0z"/>
	<path class="st6" d="M379,108l-42-28v115L379,108z"/>
	<path class="st7" d="M781,315l-75-47l-28,140L781,315z"/>
	<path class="st0" d="M706,268l29-44l-127-26L706,268z"/>
	<path class="st8" d="M580,0h-82l-20,83L580,0z"/>
	<path class="st2" d="M735,224l-49-92l-78,66L735,224z"/>
	<path class="st3" d="M835,403l-54-88l-103,93L835,403z"/>
	<path class="st7" d="M87,381l99,155l50-114L87,381z"/>
	<path class="st10" d="M580,0L478,83l82,49L580,0z"/>
	<path class="st9" d="M478,83L369,0l10,108L478,83z"/>
	<path class="st3" d="M216,213l-104,54l87,71L216,213z"/>
	<path class="st5" d="M199,338L87,381l149,41L199,338z"/>
	<path class="st9" d="M130,137l-18,130l104-54L130,137z"/>
	<path class="st10" d="M132,594l69,4l-15-62L132,594z"/>
	<path class="st4" d="M186,536l15,62l107-6L186,536z"/>
	<path class="st4" d="M286,697l81,28l14-108L286,697z"/>
	<path class="st4" d="M781,315l12-96l-58,5L781,315z"/>
	<path class="st6" d="M735,224l40-124l-89,32L735,224z"/>
	<path class="st7" d="M498,0H369l109,83L498,0z"/>
	<path class="st10" d="M337,80L177,96l39,117L337,80z"/>
	<path class="st3" d="M715,630l58-97l-104-28L715,630z"/>
	<path class="st8" d="M669,505l104,28l-95-125L669,505z"/>
	<path class="st1" d="M781,315l119-38l-107-58L781,315z"/>
	<path class="st0" d="M112,267L87,381l112-43L112,267z"/>
	<path class="st5" d="M704,0H580l106,132L704,0z"/>
	<path class="st1" d="M686,132L580,0l-20,132H686z"/>
	<path class="st0" d="M369,0h-48l16,80L369,0z"/>
	<path class="st0" d="M239,0l-62,96l160-16L239,0z"/>
	<path class="st0" d="M518,729l101-155l-129,20L518,729z"/>
	<path class="st1" d="M619,574l96,56l-46-125L619,574z"/>
	<path class="st2" d="M773,533l62-130l-157,5L773,533z"/>
	<path class="st5" d="M367,725l151,4L381,617L367,725z"/>
	<path class="st10" d="M381,617l137,112l-28-135L381,617z"/>
	<path class="st4" d="M286,697l95-80l-73-25L286,697z"/>
	<path class="st6" d="M201,598l85,99l22-105L201,598z"/>
	<path class="st1" d="M177,96l-47,41l86,76L177,96z"/>
	<path class="st6" d="M112,267L0,335l87,46L112,267z"/>
	<path class="st4" d="M71,515l61,79l54-58L71,515z"/>
	<path class="st6" d="M201,598l-18,130l103-31L201,598z"/>
	<path class="st3" d="M793,219l-18-119l-40,124L793,219z"/>
	<path class="st6" d="M900,172l-125-72l18,119L900,172z"/>
	<path class="st10" d="M518,729l119-9l-18-146L518,729z"/>
	<path class="st5" d="M321,0h-82l98,80L321,0z"/>
	<path class="st4" d="M0,101l68,90l62-54L0,101z"/>
	<path class="st1" d="M87,381L71,515l115,21L87,381z"/>
	<path class="st4" d="M782,684l1-70l-68,16L782,684z"/>
	<path class="st0" d="M715,630l68-16l-10-81L715,630z"/>
	<path class="st7" d="M900,526V395l-65,8L900,526z"/>
	<path class="st6" d="M0,176l68,15L0,101V176z"/>
	<path class="st6" d="M130,137l-62,54l44,76L130,137z"/>
	<path class="st9" d="M87,381L0,426l71,89L87,381z"/>
	<path class="st10" d="M383,793l143-24l-8-40L383,793z"/>
	<path class="st5" d="M518,729l8,40l111-49L518,729z"/>
	<path class="st2" d="M775,100L704,0l-18,132L775,100z"/>
	<path class="st0" d="M717,806l18-110l-98,24L717,806z"/>
	<path class="st6" d="M637,720l98-24l-20-66L637,720z"/>
	<path class="st6" d="M900,526l-65-123l-62,130L900,526z"/>
	<path class="st8" d="M835,403l65-126l-119,38L835,403z"/>
	<path class="st10" d="M367,725l16,68l135-64L367,725z"/>
	<path class="st5" d="M299,821l84-28l-16-68L299,821z"/>
	<path class="st4" d="M299,821l68-96l-81-28L299,821z"/>
	<path class="st3" d="M900,395V277l-65,126L900,395z"/>
	<path class="st8" d="M68,191L0,335l112-68L68,191z"/>
	<path class="st9" d="M0,335v91l87-45L0,335z"/>
	<path class="st2" d="M116,670l85-72l-69-4L116,670z"/>
	<path class="st4" d="M116,670l16-76L0,562L116,670z"/>
	<path class="st1" d="M116,670l67,58l18-130L116,670z"/>
	<path class="st8" d="M735,696l47-12l-67-54L735,696z"/>
	<path class="st4" d="M900,594v-68l-127,7L900,594z"/>
	<path class="st1" d="M717,806l65-122l-47,12L717,806z"/>
	<path class="st3" d="M0,562l132,32l-61-79L0,562z"/>
	<path class="st7" d="M900,594l-127-61l10,81L900,594z"/>
	<path class="st7" d="M900,277V172l-107,47L900,277z"/>
	<path class="st3" d="M775,100L801,0h-97L775,100z"/>
	<path class="st9" d="M0,426v96l71-7L0,426z"/>
	<path class="st0" d="M68,191L0,176v159L68,191z"/>
	<path class="st5" d="M0,101l130,36L62,0L0,101z"/>
	<path class="st1" d="M900,83L801,0l-26,100L900,83z"/>
	<path class="st3" d="M183,728l116,93l-13-124L183,728z"/>
	<path class="st5" d="M461,900l121-69l-56-62L461,900z"/>
	<path class="st10" d="M526,769l56,62l55-111L526,769z"/>
	<path class="st3" d="M461,900l65-131l-143,24L461,900z"/>
	<path class="st0" d="M0,522v40l71-47L0,522z"/>
	<path class="st8" d="M900,704V594l-117,20L900,704z"/>
	<path class="st3" d="M900,172V83l-125,17L900,172z"/>
	<path class="st1" d="M62,0l68,137l47-41L62,0z"/>
	<path class="st0" d="M582,831l135-25l-80-86L582,831z"/>
	<path class="st8" d="M782,684l118,20l-117-90L782,684z"/>
	<path class="st3" d="M239,0H62l115,96L239,0z"/>
	<path class="st10" d="M183,728l-3,79l119,14L183,728z"/>
	<path class="st1" d="M129,782l51,25l3-79L129,782z"/>
	<path class="st2" d="M129,782l54-54l-67-58L129,782z"/>
	<path class="st8" d="M0,724l129,58l-13-112L0,724z"/>
	<path class="st7" d="M371,900l12-107l-84,28L371,900z"/>
	<path class="st0" d="M371,900h90l-78-107L371,900z"/>
	<path class="st7" d="M582,831l93,69l42-94L582,831z"/>
	<path class="st6" d="M320,900h51l-72-79L320,900z"/>
	<path class="st2" d="M900,83V0h-99L900,83z"/>
	<path class="st2" d="M225,900h95l-21-79L225,900z"/>
	<path class="st1" d="M225,900l74-79l-119-14L225,900z"/>
	<path class="st9" d="M807,831l93-127l-118-20L807,831z"/>
	<path class="st3" d="M461,900h137l-16-69L461,900z"/>
	<path class="st3" d="M717,806l90,25l-25-147L717,806z"/>
	<path class="st10" d="M62,0H0v101L62,0z"/>
	<path class="st7" d="M0,562v162l116-54L0,562z"/>
	<path class="st5" d="M77,900h148l-45-93L77,900z"/>
	<path class="st3" d="M598,900h77l-93-69L598,900z"/>
	<path class="st7" d="M675,900l132-69l-90-25L675,900z"/>
	<path class="st7" d="M77,900l103-93l-51-25L77,900z"/>
	<path class="st2" d="M0,724v48l129,10L0,724z"/>
	<path class="st7" d="M830,900l70-64l-93-5L830,900z"/>
	<path class="st6" d="M807,831l93,5V704L807,831z"/>
	<path class="st4" d="M675,900h155l-23-69L675,900z"/>
	<path class="st10" d="M0,772l77,128l52-118L0,772z"/>
	<path class="st3" d="M830,900h70v-64L830,900z"/>
	<path class="st5" d="M0,772v128h77L0,772z"/>
</g>
<g>
	
		<image style="overflow:visible;opacity:0.75;" width="372" height="372" xlink:href="B39E594A.png"  transform="matrix(1 0 0 1 529.25 520.875)">
	</image>
	<g>
		<circle class="st11" cx="704" cy="688.8" r="157.8"/>
	</g>
</g>
<g>
	
		<image style="overflow:visible;opacity:0.75;" width="372" height="372" xlink:href="B39E594E.png"  transform="matrix(1 0 0 1 61.25 528.125)">
	</image>
	<g>
		<circle class="st11" cx="236" cy="696" r="157.8"/>
	</g>
</g>
<g>
	
		<image style="overflow:visible;opacity:0.75;" width="372" height="372" xlink:href="B39E5949.png"  transform="matrix(1 0 0 1 514 56.125)">
	</image>
	<g>
		<circle class="st11" cx="688.8" cy="224" r="157.8"/>
	</g>
</g>
<g>
	
		<image style="overflow:visible;opacity:0.75;" width="372" height="372" xlink:href="B39E594B.png"  transform="matrix(1 0 0 1 66.25 51.125)">
	</image>
	<g>
		<circle class="st11" cx="241" cy="219" r="157.8"/>
	</g>
</g>
<path class="st11" d="M467.2,326.3c-5.9,49.7-33.3,96.5-73.7,126.1c32,3,63.9,6,95.9,9c1.6,0.1,3.3,0.3,4.6-0.5
	c1.9-1.1,2.5-3.6,2.8-5.8c4.5-27.3,9.1-54.6,13.6-81.9c-7.9,66.6-24.7,131.7-41.5,196.6"/>
</svg>
