<?xml version="1.0" encoding="utf-8"?>
<!-- Generator: Adobe Illustrator 27.0.1, SVG Export Plug-In . SVG Version: 6.00 Build 0)  -->
<svg version="1.1" id="visual" xmlns="http://www.w3.org/2000/svg" xmlns:xlink="http://www.w3.org/1999/xlink" x="0px" y="0px"
	 viewBox="0 0 900 900" style="enable-background:new 0 0 900 900;" xml:space="preserve">
<style type="text/css">
	.st0{fill:#00101C;stroke:#00101C;stroke-linejoin:bevel;}
	.st1{fill:#19435D;stroke:#19435D;stroke-linejoin:bevel;}
	.st2{fill:#246688;stroke:#246688;stroke-linejoin:bevel;}
	.st3{fill:#277297;stroke:#277297;stroke-linejoin:bevel;}
	.st4{fill:#15384F;stroke:#15384F;stroke-linejoin:bevel;}
	.st5{fill:#112E42;stroke:#112E42;stroke-linejoin:bevel;}
	.st6{fill:#1D4E6B;stroke:#1D4E6B;stroke-linejoin:bevel;}
	.st7{fill:#297EA6;stroke:#297EA6;stroke-linejoin:bevel;}
	.st8{fill:#205A7A;stroke:#205A7A;stroke-linejoin:bevel;}
	.st9{fill:#0C2435;stroke:#0C2435;stroke-linejoin:bevel;}
	.st10{fill:#081A28;stroke:#081A28;stroke-linejoin:bevel;}
	.st11{fill:none;stroke:#B4FFFD;stroke-width:26;stroke-miterlimit:10;}
</style>
<g>
	<path class="st0" d="M427,419l48,105l24-112L427,419z"/>
	<path class="st1" d="M427,419l-9,98l57,7L427,419z"/>
	<path class="st2" d="M262,537l140,27l16-47L262,537z"/>
	<path class="st3" d="M418,517l-16,47l73-40L418,517z"/>
	<path class="st0" d="M604,534l-39-141l-66,19L604,534z"/>
	<path class="st4" d="M499,412l-82-141l10,148L499,412z"/>
	<path class="st3" d="M402,564l112,31l-39-71L402,564z"/>
	<path class="st5" d="M475,524l129,10L499,412L475,524z"/>
	<path class="st2" d="M514,595l90-61l-129-10L514,595z"/>
	<path class="st2" d="M287,329l22,88l118,2L287,329z"/>
	<path class="st2" d="M427,419l-118-2l109,100L427,419z"/>
	<path class="st2" d="M514,595l81,10l9-71L514,595z"/>
	<path class="st4" d="M529,274l-112-3l82,141L529,274z"/>
	<path class="st0" d="M565,393l-36-119l-30,138L565,393z"/>
	<path class="st2" d="M688,508l-20-69l-64,95L688,508z"/>
	<path class="st6" d="M604,534l64-95l-103-46L604,534z"/>
	<path class="st1" d="M565,393l42-131l-78,12L565,393z"/>
	<path class="st1" d="M273,603l144,61l-15-100L273,603z"/>
	<path class="st7" d="M402,564l15,100l97-69L402,564z"/>
	<path class="st4" d="M514,595l12,78l69-68L514,595z"/>
	<path class="st3" d="M417,664l109,9l-12-78L417,664z"/>
	<path class="st8" d="M309,417l-47,120l156-20L309,417z"/>
	<path class="st1" d="M674,589l14-81l-84,26L674,589z"/>
	<path class="st6" d="M417,271l-130,58l140,90L417,271z"/>
	<path class="st3" d="M309,417l-78,46l31,74L309,417z"/>
	<path class="st4" d="M526,673l48,2l21-70L526,673z"/>
	<path class="st8" d="M595,605l79-16l-70-55L595,605z"/>
	<path class="st8" d="M236,369l-5,94l78-46L236,369z"/>
	<path class="st3" d="M262,537l11,66l129-39L262,537z"/>
	<path class="st3" d="M235,632l38-29l-11-66L235,632z"/>
	<path class="st9" d="M677,723l-3-134l-79,16L677,723z"/>
	<path class="st9" d="M680,303l-73-41l-42,131L680,303z"/>
	<path class="st4" d="M529,274l-93-79l-19,76L529,274z"/>
	<path class="st6" d="M287,329l-51,40l73,48L287,329z"/>
	<path class="st9" d="M668,439l12-136l-115,90L668,439z"/>
	<path class="st4" d="M820,408L680,303l-12,136L820,408z"/>
	<path class="st2" d="M520,197l-84-2l93,79L520,197z"/>
	<path class="st2" d="M417,271l-123-55l-7,113L417,271z"/>
	<path class="st8" d="M287,329l-103,8l52,32L287,329z"/>
	<path class="st8" d="M607,262l-87-65l9,77L607,262z"/>
	<path class="st2" d="M627,179l-107,18l87,65L627,179z"/>
	<path class="st2" d="M113,506l122,126l27-95L113,506z"/>
	<path class="st4" d="M273,603l6,98l138-37L273,603z"/>
	<path class="st8" d="M436,195l-142,21l123,55L436,195z"/>
	<path class="st5" d="M235,632l44,69l-6-98L235,632z"/>
	<path class="st2" d="M417,664l62,126l47-117L417,664z"/>
	<path class="st7" d="M526,673l-47,117l95-115L526,673z"/>
	<path class="st0" d="M236,369l-104,36l99,58L236,369z"/>
	<path class="st10" d="M231,463l-118,43l149,31L231,463z"/>
	<path class="st10" d="M294,216L184,337l103-8L294,216z"/>
	<path class="st7" d="M413,830l66-40l-62-126L413,830z"/>
	<path class="st8" d="M574,675l103,48l-82-118L574,675z"/>
	<path class="st7" d="M680,303l-53-124l-20,83L680,303z"/>
	<path class="st4" d="M525,62l-143,59l54,74L525,62z"/>
	<path class="st2" d="M597,838l80-115l-103-48L597,838z"/>
	<path class="st1" d="M835,512l-15-104L688,508L835,512z"/>
	<path class="st6" d="M184,337l-52,68l104-36L184,337z"/>
	<path class="st1" d="M525,62l-89,133l84,2L525,62z"/>
	<path class="st5" d="M436,195l-54-74l-88,95L436,195z"/>
	<path class="st3" d="M835,512l-147-4l144,86L835,512z"/>
	<path class="st1" d="M688,508l132-100l-152,31L688,508z"/>
	<path class="st1" d="M680,303l-1-140l-52,16L680,303z"/>
	<path class="st0" d="M132,405l-19,101l118-43L132,405z"/>
	<path class="st9" d="M171,704l97,81l11-84L171,704z"/>
	<path class="st5" d="M775,232l-96-69l1,140L775,232z"/>
	<path class="st5" d="M627,179l-31-82l-76,100L627,179z"/>
	<path class="st0" d="M279,701l134,129l4-166L279,701z"/>
	<path class="st3" d="M479,790l118,48l-23-163L479,790z"/>
	<path class="st0" d="M832,594l-144-86l-14,81L832,594z"/>
	<path class="st10" d="M382,121l-102,17l14,78L382,121z"/>
	<path class="st8" d="M294,216l-87-35l-23,156L294,216z"/>
	<path class="st3" d="M184,337L78,265l54,140L184,337z"/>
	<path class="st7" d="M171,704l108-3l-44-69L171,704z"/>
	<path class="st10" d="M279,701l-11,84l145,45L279,701z"/>
	<path class="st6" d="M64,633l107,71l64-72L64,633z"/>
	<path class="st7" d="M280,138l-73,43l87,35L280,138z"/>
	<path class="st6" d="M812,273l-37-41l-95,71L812,273z"/>
	<path class="st2" d="M677,723l155-129l-158-5L677,723z"/>
	<path class="st7" d="M729,113L596,97l83,66L729,113z"/>
	<path class="st9" d="M679,163l-83-66l31,82L679,163z"/>
	<path class="st8" d="M900,366l-88-93l8,135L900,366z"/>
	<path class="st6" d="M820,408l-8-135l-132,30L820,408z"/>
	<path class="st4" d="M560,900l37-62l-118-48L560,900z"/>
	<path class="st6" d="M677,723l162,12l-7-141L677,723z"/>
	<path class="st10" d="M597,838l127-62l-47-53L597,838z"/>
	<path class="st2" d="M596,97l-71-35l-5,135L596,97z"/>
	<path class="st10" d="M321,0l-90,76l49,62L321,0z"/>
	<path class="st8" d="M64,633l55,83l52-12L64,633z"/>
	<path class="st5" d="M171,704l-37,61l134,20L171,704z"/>
	<path class="st8" d="M415,900h52l-54-70L415,900z"/>
	<path class="st6" d="M413,830l54,70l12-110L413,830z"/>
	<path class="st1" d="M415,900l-2-70l-134,70H415z"/>
	<path class="st3" d="M832,594l68-66l-65-16L832,594z"/>
	<path class="st9" d="M835,512l65,16l-80-120L835,512z"/>
	<path class="st6" d="M900,584v-56l-68,66L900,584z"/>
	<path class="st7" d="M775,232l-46-119l-50,50L775,232z"/>
	<path class="st2" d="M639,0H480l45,62L639,0z"/>
	<path class="st10" d="M803,100l-74,13l46,119L803,100z"/>
	<path class="st10" d="M105,195l-27,70l106,72L105,195z"/>
	<path class="st10" d="M132,405L0,466l113,40L132,405z"/>
	<path class="st10" d="M113,506L64,633l171-1L113,506z"/>
	<path class="st8" d="M0,561l64,72l49-127L0,561z"/>
	<path class="st10" d="M279,900l134-70l-145-45L279,900z"/>
	<path class="st10" d="M900,528V366l-80,42L900,528z"/>
	<path class="st7" d="M900,198l-97-98l-28,132L900,198z"/>
	<path class="st3" d="M467,900h93l-81-110L467,900z"/>
	<path class="st10" d="M732,900l83-86l-91-38L732,900z"/>
	<path class="st8" d="M900,681v-97l-68,10L900,681z"/>
	<path class="st1" d="M0,790l134-25l-15-49L0,790z"/>
	<path class="st6" d="M119,716l15,49l37-61L119,716z"/>
	<path class="st3" d="M102,95l3,100l102-14L102,95z"/>
	<path class="st2" d="M207,181l-102,14l79,142L207,181z"/>
	<path class="st10" d="M321,0l-41,138l102-17L321,0z"/>
	<path class="st10" d="M280,138l-49-62l-24,105L280,138z"/>
	<path class="st5" d="M815,814l24-79l-115,41L815,814z"/>
	<path class="st5" d="M724,776l115-41l-162-12L724,776z"/>
	<path class="st4" d="M639,0L525,62l71,35L639,0z"/>
	<path class="st5" d="M525,62L480,0l-98,121L525,62z"/>
	<path class="st6" d="M900,366v-72l-88-21L900,366z"/>
	<path class="st0" d="M480,0h-69l-29,121L480,0z"/>
	<path class="st10" d="M0,409v57l132-61L0,409z"/>
	<path class="st8" d="M0,409l132-4L0,326V409z"/>
	<path class="st2" d="M134,765l51,72l83-52L134,765z"/>
	<path class="st9" d="M0,326l132,79L78,265L0,326z"/>
	<path class="st9" d="M185,837l94,63l-11-115L185,837z"/>
	<path class="st2" d="M0,466v95l113-55L0,466z"/>
	<path class="st2" d="M64,633L0,711l119,5L64,633z"/>
	<path class="st0" d="M839,735l61-54l-68-87L839,735z"/>
	<path class="st9" d="M411,0h-90l61,121L411,0z"/>
	<path class="st7" d="M0,228v98l78-61L0,228z"/>
	<path class="st6" d="M732,900l-8-124l-127,62L732,900z"/>
	<path class="st4" d="M839,735l61,63V681L839,735z"/>
	<path class="st9" d="M698,0h-59l90,113L698,0z"/>
	<path class="st2" d="M729,113L639,0l-43,97L729,113z"/>
	<path class="st3" d="M900,198l-125,34l37,41L900,198z"/>
	<path class="st8" d="M900,294v-96l-88,75L900,294z"/>
	<path class="st3" d="M560,900h172l-135-62L560,900z"/>
	<path class="st7" d="M776,0h-78l31,113L776,0z"/>
	<path class="st2" d="M231,76L102,95l105,86L231,76z"/>
	<path class="st1" d="M105,195L0,228l78,37L105,195z"/>
	<path class="st2" d="M184,0l-82,95l129-19L184,0z"/>
	<path class="st7" d="M102,95L0,228l105-33L102,95z"/>
	<path class="st10" d="M0,561v150l64-78L0,561z"/>
	<path class="st3" d="M100,900h63l22-63L100,900z"/>
	<path class="st1" d="M100,900l85-63l-51-72L100,900z"/>
	<path class="st7" d="M185,837l-22,63h116L185,837z"/>
	<path class="st9" d="M321,0H184l47,76L321,0z"/>
	<path class="st5" d="M836,900l64-102l-85,16L836,900z"/>
	<path class="st0" d="M815,814l85-16l-61-63L815,814z"/>
	<path class="st0" d="M900,0H776l27,100L900,0z"/>
	<path class="st6" d="M803,100L776,0l-47,113L803,100z"/>
	<path class="st3" d="M0,711v79l119-74L0,711z"/>
	<path class="st8" d="M0,790l100,110l34-135L0,790z"/>
	<path class="st9" d="M732,900h104l-21-86L732,900z"/>
	<path class="st6" d="M900,198V91l-97,9L900,198z"/>
	<path class="st0" d="M184,0H78l24,95L184,0z"/>
	<path class="st5" d="M102,95L0,65v163L102,95z"/>
	<path class="st5" d="M836,900h64V798L836,900z"/>
	<path class="st3" d="M78,0L0,65l102,30L78,0z"/>
	<path class="st3" d="M900,91V0l-97,100L900,91z"/>
	<path class="st10" d="M0,790v110h100L0,790z"/>
	<path class="st3" d="M78,0H0v65L78,0z"/>
</g>
<g>
	
		<image style="overflow:visible;opacity:0.75;" width="373" height="373" xlink:href="75E1BFF3.png"  transform="matrix(1 0 0 1 286 248)">
	</image>
	<g>
		<circle class="st11" cx="461.6" cy="416.7" r="157.8"/>
	</g>
</g>
<g>
	
		<image style="overflow:visible;opacity:0.75;" width="101" height="298" xlink:href="75E1BFF1.png"  transform="matrix(1 0 0 1 416 282)">
	</image>
	<g>
		<path class="st11" d="M421.5,428.6c19.2-6.6,28.7-27.8,36-46.7c-5.8,47.3-8.1,95.1-7,142.7c0,1.7,0,3.6-1.2,4.8
			c-1.1,1.1-2.8,1.2-4.3,1.2c-6.2,0.2-12.4,0.4-18.6,0.5c19.7-1,39.5,0.1,59,3.1"/>
	</g>
</g>
</svg>
