<?xml version="1.0" encoding="utf-8"?>
<!-- Generator: Adobe Illustrator 27.0.1, SVG Export Plug-In . SVG Version: 6.00 Build 0)  -->
<svg version="1.1" id="visual" xmlns="http://www.w3.org/2000/svg" xmlns:xlink="http://www.w3.org/1999/xlink" x="0px" y="0px"
	 viewBox="0 0 900 900" style="enable-background:new 0 0 900 900;" xml:space="preserve">
<style type="text/css">
	.st0{fill:#0C2435;stroke:#0C2435;stroke-linejoin:bevel;}
	.st1{fill:#00101C;stroke:#00101C;stroke-linejoin:bevel;}
	.st2{fill:#081A28;stroke:#081A28;stroke-linejoin:bevel;}
	.st3{fill:#246688;stroke:#246688;stroke-linejoin:bevel;}
	.st4{fill:#205A7A;stroke:#205A7A;stroke-linejoin:bevel;}
	.st5{fill:#19435D;stroke:#19435D;stroke-linejoin:bevel;}
	.st6{fill:#15384F;stroke:#15384F;stroke-linejoin:bevel;}
	.st7{fill:#112E42;stroke:#112E42;stroke-linejoin:bevel;}
	.st8{fill:#277297;stroke:#277297;stroke-linejoin:bevel;}
	.st9{fill:#1D4E6B;stroke:#1D4E6B;stroke-linejoin:bevel;}
	.st10{fill:#297EA6;stroke:#297EA6;stroke-linejoin:bevel;}
	.st11{fill:none;stroke:#B4FFFD;stroke-width:26;stroke-miterlimit:10;}
</style>
<g>
	<path class="st0" d="M512,410l96,5l18-88L512,410z"/>
	<path class="st1" d="M626,327l-124-48l10,131L626,327z"/>
	<path class="st2" d="M722,377l-59-106l-37,56L722,377z"/>
	<path class="st3" d="M626,327l-36-119l-88,71L626,327z"/>
	<path class="st3" d="M502,279l-92,90l102,41L502,279z"/>
	<path class="st0" d="M499,534l140-41l-31-78L499,534z"/>
	<path class="st2" d="M608,415l114-38l-96-50L608,415z"/>
	<path class="st4" d="M499,534l109-119l-96-5L499,534z"/>
	<path class="st5" d="M663,271l-73-63l36,119L663,271z"/>
	<path class="st3" d="M639,493l83-116l-114,38L639,493z"/>
	<path class="st6" d="M361,475l138,59l13-124L361,475z"/>
	<path class="st1" d="M464,188l-86,150l124-59L464,188z"/>
	<path class="st5" d="M502,279l-124,59l32,31L502,279z"/>
	<path class="st7" d="M410,369l-49,106l151-65L410,369z"/>
	<path class="st4" d="M590,208l-126-20l38,91L590,208z"/>
	<path class="st5" d="M698,632l22-139h-81L698,632z"/>
	<path class="st8" d="M639,493h81l2-116L639,493z"/>
	<path class="st4" d="M720,493l48-99l-46-17L720,493z"/>
	<path class="st6" d="M804,201l-77-17l-64,87L804,201z"/>
	<path class="st1" d="M499,534l89,61l51-102L499,534z"/>
	<path class="st2" d="M306,402l55,73l49-106L306,402z"/>
	<path class="st3" d="M499,534l-31,149l68-95L499,534z"/>
	<path class="st8" d="M496,107l-77,67l45,14L496,107z"/>
	<path class="st1" d="M464,188l-45-14l-41,164L464,188z"/>
	<path class="st2" d="M536,588l52,7l-89-61L536,588z"/>
	<path class="st5" d="M322,187l2,149l54,2L322,187z"/>
	<path class="st4" d="M378,338l-72,64l104-33L378,338z"/>
	<path class="st0" d="M825,313l-162-42l59,106L825,313z"/>
	<path class="st4" d="M663,271l64-87l-137,24L663,271z"/>
	<path class="st6" d="M590,208l-94-101l-32,81L590,208z"/>
	<path class="st6" d="M324,336l-18,66l72-64L324,336z"/>
	<path class="st2" d="M584,95l-88,12l94,101L584,95z"/>
	<path class="st0" d="M679,120l-95-25l6,113L679,120z"/>
	<path class="st2" d="M900,379l-75-66l-57,81L900,379z"/>
	<path class="st8" d="M768,394l57-81l-103,64L768,394z"/>
	<path class="st9" d="M802,134l-123-14l48,64L802,134z"/>
	<path class="st0" d="M727,184l-48-64l-89,88L727,184z"/>
	<path class="st9" d="M825,313l-21-112l-141,70L825,313z"/>
	<path class="st4" d="M315,582l58,3l-12-110L315,582z"/>
	<path class="st6" d="M361,475l12,110l126-51L361,475z"/>
	<path class="st5" d="M639,714l59-82l-110-37L639,714z"/>
	<path class="st6" d="M698,632l83-72l-61-67L698,632z"/>
	<path class="st3" d="M720,493l110,35l-62-134L720,493z"/>
	<path class="st9" d="M363,120l-41,67l97-13L363,120z"/>
	<path class="st5" d="M419,174l-97,13l56,151L419,174z"/>
	<path class="st1" d="M324,336l-88,67l70-1L324,336z"/>
	<path class="st2" d="M588,595l110,37l-59-139L588,595z"/>
	<path class="st6" d="M468,683l120-88l-52-7L468,683z"/>
	<path class="st6" d="M408,0l-45,120l133-13L408,0z"/>
	<path class="st6" d="M496,107l-133,13l56,54L496,107z"/>
	<path class="st8" d="M900,635l-70-107l-49,32L900,635z"/>
	<path class="st4" d="M781,560l49-32l-110-35L781,560z"/>
	<path class="st10" d="M236,403l48,121l22-122L236,403z"/>
	<path class="st9" d="M306,402l-22,122l77-49L306,402z"/>
	<path class="st10" d="M804,201l-2-67l-75,50L804,201z"/>
	<path class="st0" d="M679,120L613,0l-29,95L679,120z"/>
	<path class="st10" d="M900,202l-98-68l2,67L900,202z"/>
	<path class="st10" d="M204,295l32,108l88-67L204,295z"/>
	<path class="st9" d="M284,524l31,58l46-107L284,524z"/>
	<path class="st8" d="M373,585l95,98l31-149L373,585z"/>
	<path class="st0" d="M415,692l53-9l-95-98L415,692z"/>
	<path class="st2" d="M900,489V379l-132,15L900,489z"/>
	<path class="st5" d="M825,313l75-111l-96-1L825,313z"/>
	<path class="st9" d="M900,379v-49l-75-17L900,379z"/>
	<path class="st7" d="M363,120l-55,9l14,58L363,120z"/>
	<path class="st8" d="M322,187L204,295l120,41L322,187z"/>
	<path class="st4" d="M830,528l70-39l-132-95L830,528z"/>
	<path class="st2" d="M900,635V489l-70,39L900,635z"/>
	<path class="st10" d="M468,683l171,31l-51-119L468,683z"/>
	<path class="st0" d="M698,632l138,42l-55-114L698,632z"/>
	<path class="st3" d="M711,0h-98l66,120L711,0z"/>
	<path class="st7" d="M584,95L481,0l15,107L584,95z"/>
	<path class="st5" d="M363,120L336,0l-28,129L363,120z"/>
	<path class="st9" d="M331,689l84,3l-42-107L331,689z"/>
	<path class="st7" d="M468,683l143,99l28-68L468,683z"/>
	<path class="st10" d="M167,195l37,100l118-108L167,195z"/>
	<path class="st6" d="M613,0H481l103,95L613,0z"/>
	<path class="st8" d="M900,330V202l-75,111L900,330z"/>
	<path class="st6" d="M766,0h-55l-32,120L766,0z"/>
	<path class="st10" d="M766,0l-87,120l123,14L766,0z"/>
	<path class="st9" d="M611,782l76-51l-48-17L611,782z"/>
	<path class="st3" d="M639,714l48,17l11-99L639,714z"/>
	<path class="st2" d="M481,0h-73l88,107L481,0z"/>
	<path class="st1" d="M236,403l-55,83l103,38L236,403z"/>
	<path class="st5" d="M284,524l-108,36l139,22L284,524z"/>
	<path class="st5" d="M315,582l16,107l42-104L315,582z"/>
	<path class="st1" d="M122,467l59,19l55-83L122,467z"/>
	<path class="st10" d="M232,662l99,27l-16-107L232,662z"/>
	<path class="st4" d="M464,838l147-56l-143-99L464,838z"/>
	<path class="st2" d="M900,0H766l36,134L900,0z"/>
	<path class="st2" d="M687,731l149-57l-138-42L687,731z"/>
	<path class="st0" d="M900,202v-94l-98,26L900,202z"/>
	<path class="st10" d="M464,838l4-155l-53,9L464,838z"/>
	<path class="st1" d="M687,731l146,48l3-105L687,731z"/>
	<path class="st6" d="M408,0h-72l27,120L408,0z"/>
	<path class="st10" d="M308,129l-141,66l155-8L308,129z"/>
	<path class="st2" d="M174,78l-7,117l141-66L174,78z"/>
	<path class="st1" d="M88,436l34,31l114-64L88,436z"/>
	<path class="st7" d="M836,674l64-39l-119-75L836,674z"/>
	<path class="st5" d="M122,467l54,93l5-74L122,467z"/>
	<path class="st1" d="M181,486l-5,74l108-36L181,486z"/>
	<path class="st7" d="M176,560l56,102l83-80L176,560z"/>
	<path class="st5" d="M382,836l82,2l-49-146L382,836z"/>
	<path class="st1" d="M88,436l148-33l-32-108L88,436z"/>
	<path class="st9" d="M176,560l-60,48l116,54L176,560z"/>
	<path class="st2" d="M611,782l95,17l-19-68L611,782z"/>
	<path class="st6" d="M836,674l64,43v-82L836,674z"/>
	<path class="st4" d="M87,234l3,58l114,3L87,234z"/>
	<path class="st5" d="M229,0l-55,78l134,51L229,0z"/>
	<path class="st9" d="M167,195l-80,39l117,61L167,195z"/>
	<path class="st9" d="M90,292l-2,144l116-141L90,292z"/>
	<path class="st0" d="M122,467l-6,141l60-48L122,467z"/>
	<path class="st9" d="M339,802l76-110l-84-3L339,802z"/>
	<path class="st0" d="M611,782l88,118l7-101L611,782z"/>
	<path class="st5" d="M336,0H229l79,129L336,0z"/>
	<path class="st5" d="M833,779l67-62l-64-43L833,779z"/>
	<path class="st3" d="M129,111L87,234l80-39L129,111z"/>
	<path class="st5" d="M90,292L0,413l88,23L90,292z"/>
	<path class="st1" d="M900,108V0l-98,134L900,108z"/>
	<path class="st0" d="M186,765l153,37l-8-113L186,765z"/>
	<path class="st5" d="M900,794l-67-15l-16,121L900,794z"/>
	<path class="st7" d="M706,799l127-20l-146-48L706,799z"/>
	<path class="st10" d="M174,78l-45,33l38,84L174,78z"/>
	<path class="st0" d="M76,0l53,111l45-33L76,0z"/>
	<path class="st1" d="M339,802l43,34l33-144L339,802z"/>
	<path class="st10" d="M0,507l116,101l6-141L0,507z"/>
	<path class="st9" d="M232,662l-46,103l145-76L232,662z"/>
	<path class="st8" d="M517,900l94-118l-147,56L517,900z"/>
	<path class="st1" d="M517,900h64l30-118L517,900z"/>
	<path class="st4" d="M391,900h126l-53-62L391,900z"/>
	<path class="st1" d="M817,900l16-121l-127,20L817,900z"/>
	<path class="st6" d="M833,779l67,15v-77L833,779z"/>
	<path class="st2" d="M310,900h81l-9-64L310,900z"/>
	<path class="st6" d="M382,836l9,64l73-62L382,836z"/>
	<path class="st1" d="M104,729l82,36l46-103L104,729z"/>
	<path class="st2" d="M581,900h118l-88-118L581,900z"/>
	<path class="st9" d="M88,436L0,507l122-40L88,436z"/>
	<path class="st4" d="M116,608l-12,121l128-67L116,608z"/>
	<path class="st0" d="M0,297v116l90-121L0,297z"/>
	<path class="st10" d="M0,297l90-5l-3-58L0,297z"/>
	<path class="st3" d="M0,232v65l87-63L0,232z"/>
	<path class="st8" d="M310,900l72-64l-43-34L310,900z"/>
	<path class="st4" d="M0,86l87,148l42-123L0,86z"/>
	<path class="st2" d="M0,86v146l87,2L0,86z"/>
	<path class="st8" d="M0,413v94l88-71L0,413z"/>
	<path class="st6" d="M0,623l104,106l12-121L0,623z"/>
	<path class="st4" d="M203,900h107l29-98L203,900z"/>
	<path class="st10" d="M203,900l136-98l-153-37L203,900z"/>
	<path class="st8" d="M699,900h118L706,799L699,900z"/>
	<path class="st3" d="M229,0H76l98,78L229,0z"/>
	<path class="st9" d="M0,507v116l116-15L0,507z"/>
	<path class="st9" d="M76,0L0,86l129,25L76,0z"/>
	<path class="st8" d="M817,900h83V794L817,900z"/>
	<path class="st6" d="M60,784l126-19l-82-36L60,784z"/>
	<path class="st3" d="M65,900h138l-17-135L65,900z"/>
	<path class="st6" d="M0,714l60,70l44-55L0,714z"/>
	<path class="st4" d="M0,623v91l104,15L0,623z"/>
	<path class="st9" d="M76,0H0v86L76,0z"/>
	<path class="st1" d="M0,714v96l60-26L0,714z"/>
	<path class="st5" d="M60,784l5,116l121-135L60,784z"/>
	<path class="st10" d="M0,810l65,90l-5-116L0,810z"/>
	<path class="st1" d="M0,810v90h65L0,810z"/>
</g>
<g>
	
		<image style="overflow:visible;opacity:0.75;" width="372" height="372" xlink:href="6DACAD95.png"  transform="matrix(1 0 0 1 43.75 49.875)">
	</image>
	<g>
		<circle class="st11" cx="218.8" cy="217.8" r="157.8"/>
	</g>
</g>
<g>
	
		<image style="overflow:visible;opacity:0.75;" width="372" height="372" xlink:href="6DACAD97.png"  transform="matrix(1 0 0 1 512 49.875)">
	</image>
	<g>
		<circle class="st11" cx="687" cy="217.8" r="157.8"/>
	</g>
</g>
<g>
	
		<image style="overflow:visible;opacity:0.75;" width="372" height="372" xlink:href="6DACAD92.png"  transform="matrix(1 0 0 1 47.75 521.125)">
	</image>
	<g>
		<circle class="st11" cx="222.8" cy="689" r="157.8"/>
	</g>
</g>
<g>
	
		<image style="overflow:visible;opacity:0.75;" width="372" height="372" xlink:href="6DACAD93.png"  transform="matrix(1 0 0 1 515.25 524.125)">
	</image>
	<g>
		<circle class="st11" cx="690.2" cy="692" r="157.8"/>
	</g>
</g>
<g>
	
		<image style="overflow:visible;opacity:0.75;" width="372" height="372" xlink:href="6DACAD9D.png"  transform="matrix(1 0 0 1 277 286.875)">
	</image>
	<g>
		<circle class="st11" cx="452" cy="454.8" r="157.8"/>
	</g>
</g>
<path class="st11" d="M507.7,399.5c-32.5-4.2-64.1-15.2-92.2-32.1c0.1,31.2,0.2,62.5,0.3,93.7c16.2-3.8,33.3-7.6,49.3-3.2
	c21.2,5.9,36.7,26.2,39.7,47.9c1.1,8.1,0.5,16.9-4.2,23.6c-6.3,9-18.2,11.9-29.2,12.5c-14.6,0.8-29.5-1.5-42.4-8.4
	c-12.9-6.9-23.4-18.6-27.1-32.7"/>
</svg>
