<?xml version="1.0" encoding="utf-8"?>
<!-- Generator: Adobe Illustrator 27.0.1, SVG Export Plug-In . SVG Version: 6.00 Build 0)  -->
<svg version="1.1" id="visual" xmlns="http://www.w3.org/2000/svg" xmlns:xlink="http://www.w3.org/1999/xlink" x="0px" y="0px"
	 viewBox="0 0 900 900" style="enable-background:new 0 0 900 900;" xml:space="preserve">
<style type="text/css">
	.st0{fill:#297EA6;stroke:#297EA6;stroke-linejoin:bevel;}
	.st1{fill:#15384F;stroke:#15384F;stroke-linejoin:bevel;}
	.st2{fill:#0C2435;stroke:#0C2435;stroke-linejoin:bevel;}
	.st3{fill:#19435D;stroke:#19435D;stroke-linejoin:bevel;}
	.st4{fill:#205A7A;stroke:#205A7A;stroke-linejoin:bevel;}
	.st5{fill:#081A28;stroke:#081A28;stroke-linejoin:bevel;}
	.st6{fill:#277297;stroke:#277297;stroke-linejoin:bevel;}
	.st7{fill:#1D4E6B;stroke:#1D4E6B;stroke-linejoin:bevel;}
	.st8{fill:#246688;stroke:#246688;stroke-linejoin:bevel;}
	.st9{fill:#112E42;stroke:#112E42;stroke-linejoin:bevel;}
	.st10{fill:#00101C;stroke:#00101C;stroke-linejoin:bevel;}
	.st11{fill:none;stroke:#B4FFFD;stroke-width:26;stroke-miterlimit:10;}
	.st12{fill:#B4FFFD;}
</style>
<g>
	<path class="st0" d="M481,421l-82,61l87,55L481,421z"/>
	<path class="st1" d="M399,482l-27,87l114-32L399,482z"/>
	<path class="st2" d="M481,421l-107-42l25,103L481,421z"/>
	<path class="st2" d="M399,482l-133,45l106,42L399,482z"/>
	<path class="st3" d="M372,569l117,48l-3-80L372,569z"/>
	<path class="st4" d="M611,614l6-82l-131,5L611,614z"/>
	<path class="st4" d="M486,537l131-5L481,421L486,537z"/>
	<path class="st5" d="M481,421l-110-88l3,46L481,421z"/>
	<path class="st6" d="M374,379l-95,57l120,46L374,379z"/>
	<path class="st7" d="M265,305l14,131l95-57L265,305z"/>
	<path class="st8" d="M320,701l75-36l-23-96L320,701z"/>
	<path class="st4" d="M372,569l23,96l94-48L372,569z"/>
	<path class="st7" d="M617,532l21-140l-157,29L617,532z"/>
	<path class="st7" d="M481,421l55-140l-165,52L481,421z"/>
	<path class="st5" d="M279,436l-13,91l133-45L279,436z"/>
	<path class="st1" d="M578,722l33-108l-122,3L578,722z"/>
	<path class="st4" d="M489,617l122-3l-125-77L489,617z"/>
	<path class="st7" d="M617,532l55-119l-34-21L617,532z"/>
	<path class="st1" d="M266,527l13,40l93,2L266,527z"/>
	<path class="st0" d="M584,289l-48-8l-55,140L584,289z"/>
	<path class="st0" d="M728,476l-56-63l-55,119L728,476z"/>
	<path class="st5" d="M638,392l-54-103L481,421L638,392z"/>
	<path class="st7" d="M395,665l75,39l19-87L395,665z"/>
	<path class="st1" d="M221,405l15,70l43-39L221,405z"/>
	<path class="st9" d="M279,436l-43,39l30,52L279,436z"/>
	<path class="st1" d="M266,527l-41,80l54-40L266,527z"/>
	<path class="st5" d="M686,286l-102,3l54,103L686,286z"/>
	<path class="st1" d="M739,692l-73-105l-55,27L739,692z"/>
	<path class="st7" d="M611,614l55-27l-49-55L611,614z"/>
	<path class="st9" d="M265,305l-44,100l58,31L265,305z"/>
	<path class="st9" d="M279,567l41,134l52-132L279,567z"/>
	<path class="st2" d="M395,665l-20,131l95-92L395,665z"/>
	<path class="st6" d="M225,607l95,94l-41-134L225,607z"/>
	<path class="st7" d="M307,219l-42,86l106,28L307,219z"/>
	<path class="st3" d="M371,333l-106-28l109,74L371,333z"/>
	<path class="st6" d="M666,587l62-111l-111,56L666,587z"/>
	<path class="st8" d="M672,413l14-127l-48,106L672,413z"/>
	<path class="st6" d="M112,500l113,107l11-132L112,500z"/>
	<path class="st3" d="M236,475l-11,132l41-80L236,475z"/>
	<path class="st2" d="M499,792l79-70l-108-18L499,792z"/>
	<path class="st6" d="M470,704l108,18l-89-105L470,704z"/>
	<path class="st5" d="M536,281l-160-66l-5,118L536,281z"/>
	<path class="st0" d="M498,179l-122,36l160,66L498,179z"/>
	<path class="st0" d="M794,382l-108-96l-14,127L794,382z"/>
	<path class="st2" d="M606,186l-108-7l38,102L606,186z"/>
	<path class="st4" d="M307,219l-87,81l45,5L307,219z"/>
	<path class="st5" d="M265,305l-45-5l1,105L265,305z"/>
	<path class="st8" d="M376,215l-69,4l64,114L376,215z"/>
	<path class="st5" d="M606,186l-70,95l48,8L606,186z"/>
	<path class="st5" d="M376,215l15-76l-84,80L376,215z"/>
	<path class="st9" d="M375,796l124-4l-29-88L375,796z"/>
	<path class="st7" d="M789,638l-13-120l-110,69L789,638z"/>
	<path class="st5" d="M666,587l110-69l-48-42L666,587z"/>
	<path class="st3" d="M728,476l66-94l-122,31L728,476z"/>
	<path class="st2" d="M499,792l94-14l-15-56L499,792z"/>
	<path class="st9" d="M578,722l161-30l-128-78L578,722z"/>
	<path class="st2" d="M319,805l56-9l-55-95L319,805z"/>
	<path class="st1" d="M320,701l55,95l20-131L320,701z"/>
	<path class="st3" d="M686,286l-80-100l-22,103L686,286z"/>
	<path class="st1" d="M220,300l-92,127l93-22L220,300z"/>
	<path class="st4" d="M221,405l-93,22l108,48L221,405z"/>
	<path class="st6" d="M776,518l18-136l-66,94L776,518z"/>
	<path class="st1" d="M686,286l9-73l-89-27L686,286z"/>
	<path class="st3" d="M491,84l-100,55l107,40L491,84z"/>
	<path class="st8" d="M498,179l-107-40l-15,76L498,179z"/>
	<path class="st1" d="M307,219l-78-44l-9,125L307,219z"/>
	<path class="st4" d="M593,778l146-86l-161,30L593,778z"/>
	<path class="st6" d="M128,427l-16,73l124-25L128,427z"/>
	<path class="st8" d="M173,777l146,28l1-104L173,777z"/>
	<path class="st6" d="M171,687l149,14l-95-94L171,687z"/>
	<path class="st1" d="M593,900V778l-94,14L593,900z"/>
	<path class="st2" d="M792,286l-97-73l-9,73H792z"/>
	<path class="st5" d="M120,660l51,27l54-80L120,660z"/>
	<path class="st8" d="M112,500l7,97l106,10L112,500z"/>
	<path class="st3" d="M739,692l50-54l-123-51L739,692z"/>
	<path class="st4" d="M776,518l124,6L794,382L776,518z"/>
	<path class="st4" d="M332,76l-103,99l78,44L332,76z"/>
	<path class="st10" d="M220,300l-148,5l56,122L220,300z"/>
	<path class="st8" d="M794,382l-2-96H686L794,382z"/>
	<path class="st8" d="M0,638l120,22l-1-63L0,638z"/>
	<path class="st7" d="M119,597l1,63l105-53L119,597z"/>
	<path class="st1" d="M171,687l2,90l147-76L171,687z"/>
	<path class="st5" d="M606,186L491,84l7,95L606,186z"/>
	<path class="st2" d="M391,139l-59-63l-25,143L391,139z"/>
	<path class="st3" d="M631,94L491,84l115,102L631,94z"/>
	<path class="st8" d="M764,819l29-97l-54-30L764,819z"/>
	<path class="st1" d="M739,692l54,30l-4-84L739,692z"/>
	<path class="st2" d="M900,371l-108-85l2,96L900,371z"/>
	<path class="st5" d="M229,175l-91,47l82,78L229,175z"/>
	<path class="st2" d="M128,427L0,492l112,8L128,427z"/>
	<path class="st9" d="M120,660l53,117l-2-90L120,660z"/>
	<path class="st1" d="M593,900l92-68l-92-54V900z"/>
	<path class="st5" d="M593,778l92,54l54-140L593,778z"/>
	<path class="st8" d="M475,900l24-108l-92,108H475z"/>
	<path class="st4" d="M407,900l-32-104l-56,9L407,900z"/>
	<path class="st2" d="M407,900l92-108l-124,4L407,900z"/>
	<path class="st6" d="M686,90l-80,96l89,27L686,90z"/>
	<path class="st10" d="M686,90l-55,4l-25,92L686,90z"/>
	<path class="st3" d="M291,900h116l-88-95L291,900z"/>
	<path class="st0" d="M399,0l-67,76l59,63L399,0z"/>
	<path class="st1" d="M229,175l-62-59l-29,106L229,175z"/>
	<path class="st10" d="M138,222l-66,83l148-5L138,222z"/>
	<path class="st1" d="M112,500L0,492l119,105L112,500z"/>
	<path class="st9" d="M792,286l21-58l-118-15L792,286z"/>
	<path class="st9" d="M900,292l-87-64l-21,58L900,292z"/>
	<path class="st7" d="M900,524l-124-6l124,98V524z"/>
	<path class="st5" d="M475,900h118l-94-108L475,900z"/>
	<path class="st8" d="M900,616l-124-98l13,120L900,616z"/>
	<path class="st7" d="M784,78l-98,12l9,123L784,78z"/>
	<path class="st9" d="M583,0H468l23,84L583,0z"/>
	<path class="st4" d="M491,84L399,0l-8,139L491,84z"/>
	<path class="st2" d="M900,524V371l-106,11L900,524z"/>
	<path class="st2" d="M233,900h58l28-95L233,900z"/>
	<path class="st10" d="M685,832l79-13l-25-127L685,832z"/>
	<path class="st5" d="M900,704v-88l-111,22L900,704z"/>
	<path class="st10" d="M724,900l40-81l-79,13L724,900z"/>
	<path class="st2" d="M900,704l-111-66l4,84L900,704z"/>
	<path class="st4" d="M0,402v90l128-65L0,402z"/>
	<path class="st10" d="M120,660L80,815l93-38L120,660z"/>
	<path class="st10" d="M72,305L0,402l128,25L72,305z"/>
	<path class="st9" d="M332,76l-165,40l62,59L332,76z"/>
	<path class="st7" d="M0,227v77l72,1L0,227z"/>
	<path class="st9" d="M72,305l-72-1v98L72,305z"/>
	<path class="st0" d="M900,371v-79l-108-6L900,371z"/>
	<path class="st3" d="M813,228L784,78l-89,135L813,228z"/>
	<path class="st3" d="M93,900h140l-60-123L93,900z"/>
	<path class="st0" d="M173,777l60,123l86-95L173,777z"/>
	<path class="st3" d="M583,0l-92,84l140,10L583,0z"/>
	<path class="st10" d="M332,76L292,0L167,116L332,76z"/>
	<path class="st9" d="M468,0h-69l92,84L468,0z"/>
	<path class="st7" d="M0,492v146l119-41L0,492z"/>
	<path class="st10" d="M900,801v-97l-107,18L900,801z"/>
	<path class="st10" d="M0,227l72,78l66-83L0,227z"/>
	<path class="st7" d="M707,0H583l48,94L707,0z"/>
	<path class="st9" d="M593,900h131l-39-68L593,900z"/>
	<path class="st6" d="M764,819l136-18l-107-79L764,819z"/>
	<path class="st8" d="M139,0L97,131l70-15L139,0z"/>
	<path class="st9" d="M167,116l-70,15l41,91L167,116z"/>
	<path class="st0" d="M0,638v47l120-25L0,638z"/>
	<path class="st4" d="M0,685l80,130l40-155L0,685z"/>
	<path class="st9" d="M399,0H292l40,76L399,0z"/>
	<path class="st7" d="M900,134L784,78l29,150L900,134z"/>
	<path class="st4" d="M686,90l21-90l-76,94L686,90z"/>
	<path class="st3" d="M724,900h49l-9-81L724,900z"/>
	<path class="st6" d="M97,131L0,227l138-5L97,131z"/>
	<path class="st9" d="M900,292V188l-87,40L900,292z"/>
	<path class="st1" d="M812,0H707l77,78L812,0z"/>
	<path class="st9" d="M784,78L707,0l-21,90L784,78z"/>
	<path class="st7" d="M900,900v-99l-136,18L900,900z"/>
	<path class="st5" d="M0,900h93l-13-85L0,900z"/>
	<path class="st5" d="M80,815l13,85l80-123L80,815z"/>
	<path class="st0" d="M900,188v-54l-87,94L900,188z"/>
	<path class="st7" d="M292,0H169l-2,116L292,0z"/>
	<path class="st6" d="M97,131L0,84v143L97,131z"/>
	<path class="st1" d="M0,685v142l80-12L0,685z"/>
	<path class="st7" d="M169,0h-30l28,116L169,0z"/>
	<path class="st3" d="M900,0h-88l-28,78L900,0z"/>
	<path class="st5" d="M773,900h127l-136-81L773,900z"/>
	<path class="st9" d="M139,0L0,84l97,47L139,0z"/>
	<path class="st3" d="M0,827v73l80-85L0,827z"/>
	<path class="st6" d="M900,134V0L784,78L900,134z"/>
	<path class="st8" d="M139,0H0v84L139,0z"/>
</g>
<g>
	
		<image style="overflow:visible;opacity:0.75;" width="372" height="372" xlink:href="27BB01DC.png"  transform="matrix(1 0 0 1 29.5 29)">
	</image>
	<g>
		<circle class="st11" cx="204.2" cy="196.8" r="157.8"/>
	</g>
</g>
<g>
	
		<image style="overflow:visible;opacity:0.75;" width="372" height="372" xlink:href="27BB01DD.png"  transform="matrix(1 0 0 1 31.5 282.25)">
	</image>
	<g>
		<circle class="st11" cx="206.2" cy="450" r="157.8"/>
	</g>
</g>
<g>
	
		<image style="overflow:visible;opacity:0.75;" width="372" height="372" xlink:href="27BB01DB.png"  transform="matrix(1 0 0 1 31.5 512.25)">
	</image>
	<g>
		<circle class="st11" cx="206.2" cy="680" r="157.8"/>
	</g>
</g>
<g>
	
		<image style="overflow:visible;opacity:0.75;" width="372" height="372" xlink:href="27BB01E4.png"  transform="matrix(1 0 0 1 500.25 35)">
	</image>
	<g>
		<circle class="st11" cx="675" cy="202.8" r="157.8"/>
	</g>
</g>
<g>
	
		<image style="overflow:visible;opacity:0.75;" width="372" height="372" xlink:href="27BB01E7.png"  transform="matrix(1 0 0 1 497.75 272.25)">
	</image>
	<g>
		<circle class="st11" cx="672.5" cy="440" r="157.8"/>
	</g>
</g>
<g>
	
		<image style="overflow:visible;opacity:0.75;" width="372" height="372" xlink:href="27BB01E5.png"  transform="matrix(1 0 0 1 497.25 508)">
	</image>
	<g>
		<circle class="st11" cx="672" cy="675.8" r="157.8"/>
	</g>
</g>
<g>
	
		<image style="overflow:visible;opacity:0.75;" width="169" height="321" xlink:href="27BB01EB.png"  transform="matrix(1 0 0 1 365 342)">
	</image>
	<g>
		<path class="st12" d="M414.7,629c-8.9,0-17.8-1.3-26.3-4c-4.7-1.5-10.8-3.9-15.4-9.5c-6.2-7.5-6.4-16.7-6.6-20.6
			c-1-35.8,10.8-69.3,22.5-97.4c23.4-56.5,54.4-109.5,92.1-157.7l23.6,18.5c-36,46-65.6,96.8-88,150.7c-0.7,1.7-1.4,3.4-2.1,5.1
			c24.5-6.5,51.2-5.3,74.7,4.3c2,0.8,6.5,2.7,10.1,7c4.8,6,4.8,12.8,4.7,15.4c-0.1,27.7-14.1,55.1-36.5,71.4
			C452.3,623.2,433.4,629,414.7,629z M396.4,596.1c0.3,0.1,0.6,0.2,0.9,0.3c17.5,5.5,37.6,2.3,52.4-8.5c13.8-10,22.7-26.4,24-43.3
			c-23.5-8.1-50.5-5.6-72.1,6.8c-3.6,13.8-5.8,28.2-5.4,42.7C396.4,594.9,396.4,595.6,396.4,596.1z M395.2,595.6L395.2,595.6
			C395.2,595.6,395.2,595.6,395.2,595.6z"/>
	</g>
</g>
</svg>
