<?xml version="1.0" encoding="utf-8"?>
<!-- Generator: Adobe Illustrator 27.0.1, SVG Export Plug-In . SVG Version: 6.00 Build 0)  -->
<svg version="1.1" id="visual" xmlns="http://www.w3.org/2000/svg" xmlns:xlink="http://www.w3.org/1999/xlink" x="0px" y="0px"
	 viewBox="0 0 900 900" style="enable-background:new 0 0 900 900;" xml:space="preserve">
<style type="text/css">
	.st0{fill:#15384F;stroke:#15384F;stroke-linejoin:bevel;}
	.st1{fill:#112E42;stroke:#112E42;stroke-linejoin:bevel;}
	.st2{fill:#1D4E6B;stroke:#1D4E6B;stroke-linejoin:bevel;}
	.st3{fill:#277297;stroke:#277297;stroke-linejoin:bevel;}
	.st4{fill:#19435D;stroke:#19435D;stroke-linejoin:bevel;}
	.st5{fill:#205A7A;stroke:#205A7A;stroke-linejoin:bevel;}
	.st6{fill:#297EA6;stroke:#297EA6;stroke-linejoin:bevel;}
	.st7{fill:#0C2435;stroke:#0C2435;stroke-linejoin:bevel;}
	.st8{fill:#00101C;stroke:#00101C;stroke-linejoin:bevel;}
	.st9{fill:#246688;stroke:#246688;stroke-linejoin:bevel;}
	.st10{fill:#081A28;stroke:#081A28;stroke-linejoin:bevel;}
	.st11{fill:none;stroke:#B4FFFD;stroke-width:26;stroke-miterlimit:10;}
</style>
<g>
	<path class="st0" d="M406,484l1,82l67-49L406,484z"/>
	<path class="st1" d="M407,566l66,35l1-84L407,566z"/>
	<path class="st2" d="M406,484l-95-4l96,86L406,484z"/>
	<path class="st3" d="M574,418l-71-6l-29,105L574,418z"/>
	<path class="st0" d="M474,517l29-105l-97,72L474,517z"/>
	<path class="st3" d="M406,484l-45-82l-50,78L406,484z"/>
	<path class="st4" d="M503,412l-142-10l45,82L503,412z"/>
	<path class="st5" d="M311,480l-14,103l110-17L311,480z"/>
	<path class="st6" d="M407,566l66,117v-82L407,566z"/>
	<path class="st0" d="M366,728l107-45l-66-117L366,728z"/>
	<path class="st1" d="M609,516l-35-98l-100,99L609,516z"/>
	<path class="st0" d="M609,516l-135,1l-1,84L609,516z"/>
	<path class="st1" d="M625,585l-16-69l-136,85L625,585z"/>
	<path class="st4" d="M382,290l-85,89l64,23L382,290z"/>
	<path class="st7" d="M361,402l-64-23l14,101L361,402z"/>
	<path class="st8" d="M311,480l-126,19l112,84L311,480z"/>
	<path class="st4" d="M382,290l-21,112l142,10L382,290z"/>
	<path class="st9" d="M613,709l12-124l-152,16L613,709z"/>
	<path class="st10" d="M309,703l57,25l41-162L309,703z"/>
	<path class="st0" d="M297,583l12,120l98-137L297,583z"/>
	<path class="st0" d="M520,264l-138,26l121,122L520,264z"/>
	<path class="st9" d="M171,413l14,86l126-19L171,413z"/>
	<path class="st6" d="M297,583L174,702l135,1L297,583z"/>
	<path class="st1" d="M518,818l95-109l-140-26L518,818z"/>
	<path class="st8" d="M473,683l140,26L473,601V683z"/>
	<path class="st5" d="M185,499l-14,80l126,4L185,499z"/>
	<path class="st10" d="M728,521l-39-82l-80,77L728,521z"/>
	<path class="st8" d="M609,516l80-77l-115-21L609,516z"/>
	<path class="st2" d="M574,418l-54-154l-17,148L574,418z"/>
	<path class="st7" d="M728,521l-119-5l16,69L728,521z"/>
	<path class="st3" d="M626,279l-106-15l54,154L626,279z"/>
	<path class="st5" d="M382,290l-119,9l34,80L382,290z"/>
	<path class="st5" d="M297,379l-126,34l140,67L297,379z"/>
	<path class="st9" d="M286,163l-23,136l119-9L286,163z"/>
	<path class="st4" d="M204,330l-33,83l126-34L204,330z"/>
	<path class="st4" d="M185,499l-78,33l64,47L185,499z"/>
	<path class="st4" d="M309,703l-36,67l93-42L309,703z"/>
	<path class="st7" d="M429,838l89-20l-45-135L429,838z"/>
	<path class="st0" d="M174,702l99,68l36-67L174,702z"/>
	<path class="st10" d="M263,299l-59,31l93,49L263,299z"/>
	<path class="st10" d="M613,709l93-75l-81-49L613,709z"/>
	<path class="st5" d="M706,634l22-113l-103,64L706,634z"/>
	<path class="st5" d="M429,838l44-155l-107,45L429,838z"/>
	<path class="st10" d="M613,709l121,13l-28-88L613,709z"/>
	<path class="st1" d="M626,279l-97-45l-9,30L626,279z"/>
	<path class="st4" d="M520,264l-107-84l-31,110L520,264z"/>
	<path class="st10" d="M171,579l3,123l123-119L171,579z"/>
	<path class="st9" d="M273,770l156,68l-63-110L273,770z"/>
	<path class="st10" d="M689,439l-63-160l-52,139L689,439z"/>
	<path class="st2" d="M722,268l-96,11l63,160L722,268z"/>
	<path class="st0" d="M171,413l-64,119l78-33L171,413z"/>
	<path class="st0" d="M171,579l-83,28l86,95L171,579z"/>
	<path class="st2" d="M135,374l-28,158l64-119L135,374z"/>
	<path class="st5" d="M488,900l74-77l-44-5L488,900z"/>
	<path class="st6" d="M518,818l44,5l51-114L518,818z"/>
	<path class="st1" d="M204,330l-69,44l36,39L204,330z"/>
	<path class="st9" d="M521,83l-108,97l116,54L521,83z"/>
	<path class="st6" d="M529,234l-116-54l107,84L529,234z"/>
	<path class="st1" d="M198,193l-96,145l102-8L198,193z"/>
	<path class="st3" d="M204,330l-102,8l33,36L204,330z"/>
	<path class="st4" d="M0,516l88,91l19-75L0,516z"/>
	<path class="st0" d="M107,532l-19,75l83-28L107,532z"/>
	<path class="st3" d="M562,823l119-38l-68-76L562,823z"/>
	<path class="st1" d="M787,627l10-97l-69-9L787,627z"/>
	<path class="st2" d="M681,785l53-63l-121-13L681,785z"/>
	<path class="st7" d="M787,627l-59-106l-22,113L787,627z"/>
	<path class="st9" d="M728,521l59-86l-98,4L728,521z"/>
	<path class="st3" d="M797,530l-10-95l-59,86L797,530z"/>
	<path class="st3" d="M734,722l53-95l-81,7L734,722z"/>
	<path class="st10" d="M308,900h121v-62L308,900z"/>
	<path class="st0" d="M429,838l59,62l30-82L429,838z"/>
	<path class="st3" d="M562,823l68,77l51-115L562,823z"/>
	<path class="st10" d="M308,900l121-62l-156-68L308,900z"/>
	<path class="st6" d="M198,193l6,137l59-31L198,193z"/>
	<path class="st7" d="M0,433v83l107,16L0,433z"/>
	<path class="st5" d="M0,624l82,53l6-70L0,624z"/>
	<path class="st10" d="M88,607l-6,70l92,25L88,607z"/>
	<path class="st2" d="M207,900h101l-35-130L207,900z"/>
	<path class="st2" d="M429,900h59l-59-62V900z"/>
	<path class="st5" d="M413,180l-127-17l96,127L413,180z"/>
	<path class="st4" d="M787,435l-65-167l-33,171L787,435z"/>
	<path class="st9" d="M626,279l-5-108l-92,63L626,279z"/>
	<path class="st1" d="M176,830l97-60l-99-68L176,830z"/>
	<path class="st9" d="M136,824l40,6l-2-128L136,824z"/>
	<path class="st4" d="M660,190l-39-19l5,108L660,190z"/>
	<path class="st2" d="M398,67l-134,44l22,52L398,67z"/>
	<path class="st3" d="M286,163l-88,30l65,106L286,163z"/>
	<path class="st6" d="M722,268l-62-78l-34,89L722,268z"/>
	<path class="st2" d="M82,677l54,147l38-122L82,677z"/>
	<path class="st4" d="M176,830l31,70l66-130L176,830z"/>
	<path class="st4" d="M800,817l28-145l-94,50L800,817z"/>
	<path class="st8" d="M734,722l94-50l-41-45L734,722z"/>
	<path class="st10" d="M900,575v-50l-103,5L900,575z"/>
	<path class="st1" d="M900,397l-61-76l-52,114L900,397z"/>
	<path class="st9" d="M488,900h142l-68-77L488,900z"/>
	<path class="st9" d="M681,785l119,32l-66-95L681,785z"/>
	<path class="st2" d="M0,433l107,99l28-158L0,433z"/>
	<path class="st9" d="M82,677L0,833l136-9L82,677z"/>
	<path class="st4" d="M136,824l71,76l-31-70L136,824z"/>
	<path class="st4" d="M0,260v173l102-95L0,260z"/>
	<path class="st2" d="M102,338L0,433l135-59L102,338z"/>
	<path class="st8" d="M0,516v108l88-17L0,516z"/>
	<path class="st0" d="M286,163l-22-52l-66,82L286,163z"/>
	<path class="st7" d="M198,193L62,220l40,118L198,193z"/>
	<path class="st0" d="M398,67l-112,96l127,17L398,67z"/>
	<path class="st4" d="M588,64l-67,19l100,88L588,64z"/>
	<path class="st3" d="M621,171L521,83l8,151L621,171z"/>
	<path class="st3" d="M900,525l-113-90l10,95L900,525z"/>
	<path class="st5" d="M787,435l52-114l-117-53L787,435z"/>
	<path class="st0" d="M828,69l-160,9l-8,112L828,69z"/>
	<path class="st5" d="M668,78l-80-14l33,107L668,78z"/>
	<path class="st10" d="M521,83L398,67l15,113L521,83z"/>
	<path class="st4" d="M630,900h64l-13-115L630,900z"/>
	<path class="st2" d="M0,624v76l82-23L0,624z"/>
	<path class="st7" d="M136,824l-50,76h121L136,824z"/>
	<path class="st1" d="M900,575l-103-45l-10,97L900,575z"/>
	<path class="st2" d="M694,900l106-83l-119-32L694,900z"/>
	<path class="st0" d="M828,672l72-97l-113,52L828,672z"/>
	<path class="st3" d="M900,693V575l-72,97L900,693z"/>
	<path class="st2" d="M137,109L62,220l136-27L137,109z"/>
	<path class="st7" d="M289,0l-51,81l26,30L289,0z"/>
	<path class="st10" d="M264,111l-26-30l-40,112L264,111z"/>
	<path class="st6" d="M668,78l-47,93l39,19L668,78z"/>
	<path class="st8" d="M492,0H369l29,67L492,0z"/>
	<path class="st0" d="M900,525V397l-113,38L900,525z"/>
	<path class="st6" d="M900,766v-73l-72-21L900,766z"/>
	<path class="st10" d="M0,185v75l62-40L0,185z"/>
	<path class="st0" d="M62,220L0,260l102,78L62,220z"/>
	<path class="st7" d="M832,211l-172-21l62,78L832,211z"/>
	<path class="st2" d="M832,211l-110,57l117,53L832,211z"/>
	<path class="st10" d="M238,81l-101,28l61,84L238,81z"/>
	<path class="st6" d="M0,833l86,67l50-76L0,833z"/>
	<path class="st4" d="M900,266l-68-55l7,110L900,266z"/>
	<path class="st10" d="M694,900h93l13-83L694,900z"/>
	<path class="st9" d="M800,817l100-51l-72-94L800,817z"/>
	<path class="st1" d="M0,700v133l82-156L0,700z"/>
	<path class="st7" d="M492,0l-94,67l123,16L492,0z"/>
	<path class="st7" d="M398,67L289,0l-25,111L398,67z"/>
	<path class="st7" d="M238,81L160,0l-23,109L238,81z"/>
	<path class="st7" d="M492,0l29,83l42-83H492z"/>
	<path class="st0" d="M563,0l-42,83l67-19L563,0z"/>
	<path class="st9" d="M900,900V766l-100,51L900,900z"/>
	<path class="st2" d="M900,397V266l-61,55L900,397z"/>
	<path class="st7" d="M783,0h-90l-25,78L783,0z"/>
	<path class="st7" d="M693,0H563l25,64L693,0z"/>
	<path class="st6" d="M369,0h-80l109,67L369,0z"/>
	<path class="st9" d="M0,90v95l137-76L0,90z"/>
	<path class="st5" d="M137,109L0,185l62,35L137,109z"/>
	<path class="st5" d="M900,266v-28l-68-27L900,266z"/>
	<path class="st3" d="M668,78l25-78L588,64L668,78z"/>
	<path class="st7" d="M0,833v67h86L0,833z"/>
	<path class="st8" d="M828,69L660,190l172,21L828,69z"/>
	<path class="st6" d="M289,0H160l78,81L289,0z"/>
	<path class="st5" d="M787,900h113l-100-83L787,900z"/>
	<path class="st2" d="M900,73l-72-4l4,142L900,73z"/>
	<path class="st5" d="M115,0L0,90l137,19L115,0z"/>
	<path class="st2" d="M160,0h-45l22,109L160,0z"/>
	<path class="st1" d="M828,69L783,0L668,78L828,69z"/>
	<path class="st3" d="M900,238V73l-68,138L900,238z"/>
	<path class="st10" d="M828,69l72-69H783L828,69z"/>
	<path class="st7" d="M115,0H0v90L115,0z"/>
	<path class="st10" d="M900,73V0l-72,69L900,73z"/>
</g>
<g>
	
		<image style="overflow:visible;opacity:0.75;" width="372" height="373" xlink:href="477596CA.png"  transform="matrix(1 0 0 1 284.3506 471.785)">
	</image>
	<g>
		<circle class="st11" cx="459.5" cy="640.5" r="157.8"/>
	</g>
</g>
<g>
	
		<image style="overflow:visible;opacity:0.75;" width="154" height="282" xlink:href="477596CE.png"  transform="matrix(1 0 0 1 55 309.5)">
	</image>
	<g>
		<path class="st11" d="M85.6,399.4c1.6-14.4,3.3-29,8.3-42.6c5-13.6,13.7-26.4,26.4-33.4c3.6-2,7.6-3.5,11.7-2.9
			c9.4,1.3,13.6,12.5,15,21.8c5.4,34.7-0.5,70.5-12.6,103.6s-30.1,63.5-49.5,92.8c30.7-6.9,61.4-13.8,92.1-20.8"/>
	</g>
</g>
<g>
	
		<image style="overflow:visible;opacity:0.75;" width="372" height="373" xlink:href="477596C9.png"  transform="matrix(1 0 0 1 274.8506 42.2675)">
	</image>
	<g>
		<circle class="st11" cx="450" cy="211" r="157.8"/>
	</g>
</g>
</svg>
